<svg xmlns="http://www.w3.org/2000/svg" viewBox="0 0 36 36" fill="none" role="img" aria-labelledby="title">
  <title id="title">Dubot</title>
  <path d="M0 8C0 3.58172 3.58172 0 8 0H28C32.4183 0 36 3.58172 36 8V28C36 32.4183 32.4183 36 28 36H8C3.58172 36 0 32.4183 0 28V8Z" fill="#0D1341"/>
  <path d="M18.5749 26.7924C18.7364 26.6583 18.8459 26.4718 18.8845 26.2654C19.1948 24.4205 20.0724 22.7182 21.3953 21.3953C22.7182 20.0724 24.4205 19.1948 26.2654 18.8845C26.4718 18.8459 26.6583 18.7364 26.7924 18.5749C26.9266 18.4133 27 18.21 27 18C27 17.79 26.9266 17.5867 26.7924 17.4251C26.6583 17.2636 26.4718 17.1541 26.2654 17.1155C24.4205 16.8052 22.7182 15.9276 21.3953 14.6047C20.0724 13.2818 19.1948 11.5795 18.8845 9.73458C18.8459 9.52817 18.7364 9.34175 18.5749 9.20759C18.4133 9.07344 18.21 9 18 9C17.79 9 17.5867 9.07344 17.4251 9.20759C17.2636 9.34175 17.1541 9.52817 17.1155 9.73458C16.8052 11.5795 15.9276 13.2818 14.6047 14.6047C13.2818 15.9276 11.5795 16.8052 9.73458 17.1155C9.52817 17.1541 9.34175 17.2636 9.20759 17.4251C9.07344 17.5867 9 17.79 9 18C9 18.21 9.07344 18.4133 9.20759 18.5749C9.34175 18.7364 9.52817 18.8459 9.73458 18.8845C11.5795 19.1948 13.2818 20.0724 14.6047 21.3953C15.9276 22.7182 16.8052 24.4205 17.1155 26.2654C17.1541 26.4718 17.2636 26.6583 17.4251 26.7924C17.5867 26.9266 17.79 27 18 27C18.21 27 18.4133 26.9266 18.5749 26.7924Z" stroke="#FFFFFF" stroke-width="1.5" stroke-linecap="round" stroke-linejoin="round"/>
</svg>
