<svg xmlns="http://www.w3.org/2000/svg" width="1200" height="560" viewBox="0 0 1200 560" fill="none" role="img" aria-labelledby="title desc">
  <title id="title">Dubot integration model</title>
  <desc id="desc">Support entry points connect to Dubot, which governs approved action in the customer's product.</desc>
  <defs>
    <linearGradient id="bg" x1="0" y1="0" x2="1200" y2="560" gradientUnits="userSpaceOnUse">
      <stop stop-color="#F7F8FF"/>
      <stop offset="1" stop-color="#ECEDF8"/>
    </linearGradient>
    <marker id="arrow" viewBox="0 0 10 10" refX="9" refY="5" markerWidth="7" markerHeight="7" orient="auto-start-reverse">
      <path d="M0 0 10 5 0 10Z" fill="#9EA8C8"/>
    </marker>
  </defs>
  <rect width="1200" height="560" rx="16" fill="url(#bg)"/>
  <text x="64" y="62" font-family="JetBrains Mono, monospace" font-size="12" font-weight="700" letter-spacing="1.2" fill="#354175">SUPPORT ENTRY POINTS</text>
  <g>
    <rect x="64" y="96" width="284" height="74" rx="16" fill="white"/>
    <circle cx="103" cy="133" r="20" fill="#03363D"/>
    <path d="M93 127h20l-10 13Z" fill="white"/>
    <text x="137" y="141" font-family="Schibsted Grotesk, Arial, sans-serif" font-size="20" font-weight="700" fill="#0D1341">Support platform</text>
    <rect x="64" y="190" width="284" height="74" rx="16" fill="white"/>
    <circle cx="103" cy="227" r="20" fill="#171717"/>
    <path d="M94 219v16M100 217v20M106 217v20M112 219v16" stroke="white" stroke-width="2.5" stroke-linecap="round"/>
    <text x="137" y="235" font-family="Schibsted Grotesk, Arial, sans-serif" font-size="20" font-weight="700" fill="#0D1341">Support AI</text>
    <rect x="64" y="284" width="284" height="74" rx="16" fill="white"/>
    <circle cx="103" cy="321" r="20" fill="#0D9DDA"/>
    <path d="M91 325c0-5 4-8 8-7 2-5 10-4 11 1 5 0 7 7 2 10H95c-2 0-4-2-4-4Z" fill="white"/>
    <text x="137" y="329" font-family="Schibsted Grotesk, Arial, sans-serif" font-size="20" font-weight="700" fill="#0D1341">Agent workspace</text>
    <rect x="64" y="378" width="284" height="74" rx="16" fill="white"/>
    <circle cx="103" cy="415" r="20" fill="#FEEEE9"/>
    <path d="M94 408h18M94 415h13M94 422h9" stroke="#EA6242" stroke-width="2.5" stroke-linecap="round"/>
    <text x="137" y="423" font-family="Schibsted Grotesk, Arial, sans-serif" font-size="20" font-weight="700" fill="#0D1341">Custom entry point</text>
  </g>
  <path d="M348 133c68 0 58 111 130 111" stroke="#9EA8C8" stroke-width="3"/>
  <path d="M348 227c68 0 58 17 130 17" stroke="#9EA8C8" stroke-width="3"/>
  <path d="M348 321c68 0 58-77 130-77" stroke="#9EA8C8" stroke-width="3"/>
  <path d="M348 415c68 0 58-171 130-171" stroke="#9EA8C8" stroke-width="3" marker-end="url(#arrow)"/>
  <g>
    <rect x="480" y="142" width="274" height="204" rx="16" fill="#0D1341"/>
    <rect x="512" y="174" width="98" height="32" rx="4" fill="#D64B2A"/>
    <text x="535" y="196" font-family="JetBrains Mono, monospace" font-size="12" font-weight="700" fill="white">DUBOT</text>
    <text x="512" y="250" font-family="Schibsted Grotesk, Arial, sans-serif" font-size="25" font-weight="700" fill="white">Approved action</text>
    <text x="512" y="281" font-family="Schibsted Grotesk, Arial, sans-serif" font-size="25" font-weight="700" fill="white">layer</text>
    <text x="512" y="318" font-family="Schibsted Grotesk, Arial, sans-serif" font-size="15" fill="#E4E5F1">Context, policy, verification</text>
  </g>
  <path d="M754 244H876" stroke="#9EA8C8" stroke-width="3" marker-end="url(#arrow)"/>
  <g>
    <rect x="878" y="142" width="258" height="204" rx="16" fill="white"/>
    <circle cx="918" cy="183" r="19" fill="#E8F7EE"/>
    <path d="m909 183 6 6 13-15" stroke="#129A5C" stroke-width="2.5" stroke-linecap="round" stroke-linejoin="round"/>
    <text x="910" y="241" font-family="Schibsted Grotesk, Arial, sans-serif" font-size="25" font-weight="700" fill="#0D1341">Your product</text>
    <text x="910" y="279" font-family="Schibsted Grotesk, Arial, sans-serif" font-size="15" fill="#354175">Browserbot and sidepanel</text>
    <text x="910" y="306" font-family="Schibsted Grotesk, Arial, sans-serif" font-size="15" fill="#354175">work in product context</text>
  </g>
  <rect x="390" y="410" width="420" height="54" rx="27" fill="#FEEEE9"/>
  <circle cx="424" cy="437" r="9" fill="#EA6242"/>
  <text x="447" y="443" font-family="JetBrains Mono, monospace" font-size="12" font-weight="700" fill="#354175">Evaluated per pilot, not connector availability</text>
  <text x="64" y="513" font-family="Schibsted Grotesk, Arial, sans-serif" font-size="13" fill="#354175">The entry point and transport are selected for the approved pilot journey.</text>
</svg>
